<?xml version="1.0" encoding="UTF-8" standalone="no"?>
<!DOCTYPE svg PUBLIC "-//W3C//DTD SVG 1.1//EN" "http://www.w3.org/Graphics/SVG/1.1/DTD/svg11.dtd">
<svg width="100%" height="100%" viewBox="0 0 634 518" version="1.1" xmlns="http://www.w3.org/2000/svg" xmlns:xlink="http://www.w3.org/1999/xlink" xml:space="preserve" xmlns:serif="http://www.serif.com/" style="fill-rule:evenodd;clip-rule:evenodd;stroke-linejoin:round;stroke-miterlimit:1.41421;">
    <g transform="matrix(1,0,0,1,-187.2,-127.489)">
        <g transform="matrix(1,0,0,1,595.325,227.386)">
            <path d="M0,144.422C-0.966,145.388 -2.255,145.92 -3.631,145.92C-4.445,145.92 -6.468,145.708 -7.752,143.734C-21.663,122.276 -28.63,97.691 -28.668,73.099C-28.668,73.036 -28.658,72.975 -28.658,72.912C-28.658,72.846 -28.668,72.781 -28.668,72.715C-28.633,48.118 -21.666,23.53 -7.752,2.074C-6.468,0.099 -4.445,-0.112 -3.631,-0.112C-2.255,-0.112 -0.966,0.417 0,1.382L11.334,12.709C-6.344,50.743 -6.312,95.042 11.421,133.001L0,144.422ZM-19.749,164.168L-31.205,175.624C-68.634,158.223 -114.06,158.199 -151.551,175.565L-162.895,164.221C-163.993,163.123 -164.528,161.598 -164.363,160.041C-164.27,159.171 -163.867,157.551 -162.207,156.469C-141.258,142.886 -116.929,135.68 -91.822,135.578C-91.663,135.58 -91.51,135.602 -91.352,135.602C-91.174,135.602 -91.003,135.578 -90.826,135.576C-65.724,135.663 -41.394,142.855 -20.444,156.413C-18.77,157.494 -18.367,159.118 -18.274,159.988C-18.116,161.546 -18.651,163.07 -19.749,164.168M-71.324,215.745L-87.807,232.192C-89.685,234.09 -92.932,234.12 -94.864,232.163L-142.325,184.698C-110.231,171.123 -72.383,171.155 -40.362,184.782L-71.324,215.745ZM-182.703,144.445L-194.089,133.04C-176.326,95.06 -176.294,50.723 -193.998,12.667L-182.67,1.329C-181.691,0.361 -180.389,-0.172 -178.993,-0.172C-178.186,-0.172 -176.162,0.04 -174.899,2.017C-161.101,23.296 -154.15,47.63 -153.992,71.995C-153.997,72.304 -154.039,72.602 -154.039,72.912C-154.039,73.218 -153.997,73.514 -153.993,73.819C-154.176,98.189 -161.154,122.515 -174.992,143.771C-176.228,145.712 -178.246,145.923 -179.059,145.923C-180.448,145.923 -181.751,145.391 -182.703,144.445M-203.141,21.866C-189.366,54.38 -189.404,91.427 -203.239,123.873L-250.642,76.388C-251.588,75.452 -252.11,74.205 -252.11,72.876C-252.11,71.546 -251.588,70.296 -250.609,69.331L-203.141,21.866ZM-162.888,-18.416L-151.513,-29.792C-132.801,-21.097 -112.141,-16.462 -91.424,-16.462L-91.418,-16.462C-70.658,-16.462 -49.97,-21.116 -31.241,-29.849L-19.802,-18.41C-18.704,-17.312 -18.168,-15.787 -18.334,-14.23C-18.426,-13.36 -18.83,-11.74 -20.49,-10.658C-41.555,3.003 -66.047,10.222 -91.312,10.222C-116.59,10.222 -141.102,2.999 -162.2,-10.665C-163.867,-11.743 -164.27,-13.367 -164.363,-14.236C-164.522,-15.794 -163.993,-17.319 -162.888,-18.416M-94.831,-86.444C-94.371,-86.912 -93.824,-87.262 -93.237,-87.501C-92.745,-87.7 -92.21,-87.775 -91.67,-87.81C-91.559,-87.817 -91.457,-87.871 -91.346,-87.871C-90,-87.87 -88.738,-87.349 -87.787,-86.398L-40.405,-39.014C-56.439,-32.197 -73.905,-28.622 -91.418,-28.622L-91.424,-28.622C-108.885,-28.622 -126.313,-32.173 -142.325,-38.949L-94.831,-86.444ZM-59.773,18.845C-47.233,16.013 -35.138,11.487 -23.779,5.363C-29.961,16.83 -34.447,28.949 -37.26,41.37C-42.709,32.064 -50.471,24.299 -59.773,18.845M-37.255,104.447C-34.449,116.83 -29.977,128.914 -23.823,140.353C-35.151,134.266 -47.208,129.763 -59.709,126.941C-50.432,121.487 -42.692,113.735 -37.255,104.447M-145.382,41.281C-148.192,28.907 -152.663,16.833 -158.819,5.402C-147.48,11.497 -135.415,16.007 -122.907,18.834C-132.187,24.271 -139.933,32.008 -145.382,41.281M-122.951,126.964C-135.483,129.802 -147.569,134.328 -158.92,140.448C-152.729,129.004 -148.231,116.907 -145.405,104.506C-139.963,113.78 -132.224,121.521 -122.951,126.964M-91.286,123.4C-91.478,123.4 -91.668,123.419 -91.86,123.42C-119.166,123.147 -141.319,101.119 -141.834,73.871C-141.829,73.23 -141.829,72.59 -141.833,71.949C-141.313,44.539 -118.903,22.392 -91.374,22.38C-91.353,22.38 -91.333,22.382 -91.312,22.382C-91.307,22.382 -91.302,22.381 -91.297,22.381C-63.512,22.411 -40.91,44.98 -40.823,72.753C-40.823,72.855 -40.822,72.958 -40.822,73.06C-40.903,100.665 -63.234,123.111 -90.788,123.417C-90.954,123.417 -91.119,123.4 -91.286,123.4M67.958,76.424L49.624,94.798L20.579,123.843C6.756,91.402 6.726,54.371 20.497,21.866L67.991,69.357C68.464,69.821 68.828,70.365 69.077,70.955C69.327,71.557 69.46,72.208 69.46,72.879C69.46,73.402 69.317,73.895 69.163,74.381C68.919,75.129 68.555,75.837 67.958,76.424M80.161,79.748C80.204,79.651 80.271,79.565 80.312,79.467C80.411,79.228 80.451,78.966 80.54,78.722C81.215,76.869 81.623,74.912 81.623,72.879C81.623,70.201 80.948,67.653 79.8,65.33C78.975,63.654 77.936,62.076 76.576,60.716L24.366,8.542L16.998,1.174L16.997,1.177L8.598,-7.216C5.337,-10.476 0.992,-12.272 -3.631,-12.272C-4.603,-12.272 -5.532,-12.077 -6.47,-11.92C-6.411,-12.27 -6.281,-12.597 -6.244,-12.953C-5.688,-18.178 -7.5,-23.301 -11.204,-27.008L-19.729,-35.533L-19.624,-35.586L-79.156,-94.979C-84.834,-100.733 -94.291,-101.421 -100.862,-97.129C-101.807,-96.52 -102.695,-95.809 -103.508,-94.996L-171.486,-27.018C-175.19,-23.314 -177.002,-18.192 -176.453,-12.963C-176.418,-12.626 -176.295,-12.318 -176.24,-11.987C-177.15,-12.134 -178.049,-12.328 -178.993,-12.328C-183.61,-12.328 -187.948,-10.549 -191.249,-7.282L-259.174,60.703C-262.461,63.944 -264.273,68.269 -264.273,72.879C-264.267,77.486 -262.461,81.808 -259.213,85.009L-199.787,144.571L-199.776,144.55L-191.275,153.066C-188.008,156.301 -183.669,158.08 -179.059,158.08C-178.088,158.08 -177.162,157.884 -176.227,157.729C-176.286,158.08 -176.416,158.407 -176.453,158.764C-177.009,163.989 -175.197,169.112 -171.493,172.819L-103.508,240.804C-100.261,244.054 -95.942,245.843 -91.352,245.843C-86.762,245.843 -82.443,244.054 -79.189,240.807L-61.54,223.157L-19.624,181.341L-19.691,181.307L-11.151,172.766C-7.447,169.062 -5.635,163.94 -6.184,158.711C-6.22,158.375 -6.344,158.067 -6.398,157.737C-5.483,157.886 -4.578,158.08 -3.631,158.08C0.992,158.08 5.337,156.281 8.598,153.02L17.107,144.511L17.137,144.571L59.398,102.218L76.583,85.032C78.126,83.489 79.313,81.69 80.161,79.748" style="fill:rgb(246,246,246);fill-rule:nonzero;"/>
        </g>
        <g transform="matrix(1,0,0,1,58.6565,-38.8776)">
            <path d="M192.192,540.115L192.192,613.651L191.808,613.651L142.368,569.011L142.656,610.771L128.544,610.771L128.544,537.331L129.12,537.331L178.464,582.643L178.176,540.115L192.192,540.115Z" style="fill:rgb(246,246,246);fill-rule:nonzero;"/>
            <path d="M197.76,575.539C197.76,569.139 199.376,563.155 202.608,557.587C205.84,552.019 210.224,547.587 215.76,544.291C221.296,540.995 227.296,539.347 233.76,539.347C240.224,539.347 246.224,540.995 251.76,544.291C257.296,547.587 261.712,552.019 265.008,557.587C268.304,563.155 269.952,569.139 269.952,575.539C269.952,582.067 268.304,588.083 265.008,593.587C261.712,599.091 257.296,603.459 251.76,606.691C246.224,609.923 240.224,611.539 233.76,611.539C227.232,611.539 221.216,609.923 215.712,606.691C210.208,603.459 205.84,599.091 202.608,593.587C199.376,588.083 197.76,582.067 197.76,575.539ZM212.16,575.539C212.16,579.635 213.136,583.411 215.088,586.867C217.04,590.323 219.696,593.059 223.056,595.075C226.416,597.091 230.144,598.099 234.24,598.099C238.208,598.099 241.824,597.091 245.088,595.075C248.352,593.059 250.912,590.339 252.768,586.915C254.624,583.491 255.552,579.699 255.552,575.539C255.552,571.315 254.592,567.475 252.672,564.019C250.752,560.563 248.144,557.827 244.848,555.811C241.552,553.795 237.888,552.787 233.856,552.787C229.824,552.787 226.16,553.795 222.864,555.811C219.568,557.827 216.96,560.563 215.04,564.019C213.12,567.475 212.16,571.315 212.16,575.539Z" style="fill:rgb(246,246,246);fill-rule:nonzero;"/>
            <path d="M314.016,610.771L299.136,588.307L289.824,588.307L289.824,610.771L275.904,610.771L275.904,540.115L297.312,540.115C306.08,540.115 312.88,542.243 317.712,546.499C322.544,550.755 324.96,556.563 324.96,563.923C324.96,568.275 324.048,572.355 322.224,576.163C320.4,579.971 317.6,582.963 313.824,585.139L330.24,610.771L314.016,610.771ZM289.824,574.867L299.712,574.867C303.488,574.867 306.24,573.763 307.968,571.555C309.696,569.347 310.56,566.963 310.56,564.403C310.56,561.843 309.824,559.395 308.352,557.059C306.88,554.723 304.032,553.555 299.808,553.555L289.824,553.555L289.824,574.867Z" style="fill:rgb(246,246,246);fill-rule:nonzero;"/>
            <path d="M380.256,540.115L380.256,553.555L363.072,553.555L363.072,610.771L349.152,610.771L349.152,553.555L332.64,553.555L332.64,540.115L380.256,540.115Z" style="fill:rgb(246,246,246);fill-rule:nonzero;"/>
            <path d="M450.24,610.771L436.32,610.771L436.32,582.067L404.736,582.067L404.736,610.771L390.816,610.771L390.816,540.115L404.736,540.115L404.736,568.627L436.32,568.627L436.32,540.115L450.24,540.115L450.24,610.771Z" style="fill:rgb(246,246,246);fill-rule:nonzero;"/>
            <path d="M524.352,613.843L507.552,571.987L487.968,614.035L459.552,540.595L475.872,540.595L489.792,581.491L500.544,554.515L494.976,540.595L508.8,540.595L524.64,579.859L536.64,540.595L551.616,540.595L524.352,613.843Z" style="fill:rgb(246,246,246);fill-rule:nonzero;"/>
            <path d="M546.24,575.539C546.24,569.139 547.856,563.155 551.088,557.587C554.32,552.019 558.704,547.587 564.24,544.291C569.776,540.995 575.776,539.347 582.24,539.347C588.704,539.347 594.704,540.995 600.24,544.291C605.776,547.587 610.192,552.019 613.488,557.587C616.784,563.155 618.432,569.139 618.432,575.539C618.432,582.067 616.784,588.083 613.488,593.587C610.192,599.091 605.776,603.459 600.24,606.691C594.704,609.923 588.704,611.539 582.24,611.539C575.712,611.539 569.696,609.923 564.192,606.691C558.688,603.459 554.32,599.091 551.088,593.587C547.856,588.083 546.24,582.067 546.24,575.539ZM560.64,575.539C560.64,579.635 561.616,583.411 563.568,586.867C565.52,590.323 568.176,593.059 571.536,595.075C574.896,597.091 578.624,598.099 582.72,598.099C586.688,598.099 590.304,597.091 593.568,595.075C596.832,593.059 599.392,590.339 601.248,586.915C603.104,583.491 604.032,579.699 604.032,575.539C604.032,571.315 603.072,567.475 601.152,564.019C599.232,560.563 596.624,557.827 593.328,555.811C590.032,553.795 586.368,552.787 582.336,552.787C578.304,552.787 574.64,553.795 571.344,555.811C568.048,557.827 565.44,560.563 563.52,564.019C561.6,567.475 560.64,571.315 560.64,575.539Z" style="fill:rgb(246,246,246);fill-rule:nonzero;"/>
            <path d="M623.808,575.539C623.808,569.139 625.424,563.155 628.656,557.587C631.888,552.019 636.272,547.587 641.808,544.291C647.344,540.995 653.344,539.347 659.808,539.347C666.272,539.347 672.272,540.995 677.808,544.291C683.344,547.587 687.76,552.019 691.056,557.587C694.352,563.155 696,569.139 696,575.539C696,582.067 694.352,588.083 691.056,593.587C687.76,599.091 683.344,603.459 677.808,606.691C672.272,609.923 666.272,611.539 659.808,611.539C653.28,611.539 647.264,609.923 641.76,606.691C636.256,603.459 631.888,599.091 628.656,593.587C625.424,588.083 623.808,582.067 623.808,575.539ZM638.208,575.539C638.208,579.635 639.184,583.411 641.136,586.867C643.088,590.323 645.744,593.059 649.104,595.075C652.464,597.091 656.192,598.099 660.288,598.099C664.256,598.099 667.872,597.091 671.136,595.075C674.4,593.059 676.96,590.339 678.816,586.915C680.672,583.491 681.6,579.699 681.6,575.539C681.6,571.315 680.64,567.475 678.72,564.019C676.8,560.563 674.192,557.827 670.896,555.811C667.6,553.795 663.936,552.787 659.904,552.787C655.872,552.787 652.208,553.795 648.912,555.811C645.616,557.827 643.008,560.563 641.088,564.019C639.168,567.475 638.208,571.315 638.208,575.539Z" style="fill:rgb(246,246,246);fill-rule:nonzero;"/>
            <path d="M702.048,540.115L723.168,540.115C732.192,540.115 739.616,541.859 745.44,545.347C751.264,548.835 755.504,553.347 758.16,558.883C760.816,564.419 762.144,570.355 762.144,576.691C762.144,583.475 760.544,589.459 757.344,594.643C754.144,599.827 749.84,603.811 744.432,606.595C739.024,609.379 733.088,610.771 726.624,610.771L702.048,610.771L702.048,540.115ZM724.224,597.331C731.456,597.331 737.184,595.475 741.408,591.763C745.632,588.051 747.744,582.707 747.744,575.731C747.744,570.099 746.576,565.619 744.24,562.291C741.904,558.963 739.184,556.659 736.08,555.379C732.976,554.099 730.048,553.459 727.296,553.459L715.968,553.459L715.968,597.331L724.224,597.331Z" style="fill:rgb(246,246,246);fill-rule:nonzero;"/>
        </g>
        <g transform="matrix(1,0,0,1,115.944,23.8458)">
            <path d="M146.064,575.443L146.064,582.163L130.944,582.163L130.944,590.179L144.048,590.179L144.048,596.899L130.944,596.899L130.944,610.771L123.984,610.771L123.984,575.443L146.064,575.443Z" style="fill:rgb(246,246,246);fill-rule:nonzero;"/>
            <path d="M170.064,589.795L170.064,610.771L163.968,610.771L163.488,607.411C162.752,608.755 161.72,609.819 160.392,610.603C159.064,611.387 157.504,611.779 155.712,611.779C153.792,611.779 152.192,611.187 150.912,610.003C149.632,608.819 148.976,607.315 148.944,605.491L148.944,589.795L155.664,589.795L155.664,602.995C155.76,605.043 156.704,606.067 158.496,606.067C159.968,606.067 161.144,605.347 162.024,603.907C162.904,602.467 163.344,600.611 163.344,598.339L163.344,589.795L170.064,589.795Z" style="fill:rgb(246,246,246);fill-rule:nonzero;"/>
            <path d="M181.296,594.595C181.872,593.475 182.664,592.467 183.672,591.571C184.68,590.675 185.712,589.979 186.768,589.483C187.824,588.987 188.656,588.739 189.264,588.739L188.928,595.459C188.736,595.427 188.464,595.411 188.112,595.411C186.768,595.411 185.584,595.763 184.56,596.467C183.536,597.171 182.752,598.075 182.208,599.179C181.664,600.283 181.392,601.411 181.392,602.563L181.392,610.771L174.72,610.771L174.72,589.795L180.768,589.795L181.296,594.595Z" style="fill:rgb(246,246,246);fill-rule:nonzero;"/>
            <path d="M206.736,588.787C208.72,588.787 210.376,589.379 211.704,590.563C213.032,591.747 213.712,593.251 213.744,595.075L213.744,610.771L207.024,610.771L207.024,597.571C206.928,595.523 205.904,594.499 203.952,594.499C202.416,594.499 201.184,595.219 200.256,596.659C199.328,598.099 198.864,599.955 198.864,602.227L198.864,610.771L192.144,610.771L192.144,589.795L198.24,589.795L198.72,593.155C199.488,591.779 200.552,590.707 201.912,589.939C203.272,589.171 204.88,588.787 206.736,588.787Z" style="fill:rgb(246,246,246);fill-rule:nonzero;"/>
            <path d="M225.12,589.795L225.12,610.771L218.4,610.771L218.4,589.795L225.12,589.795ZM218.256,582.355C218.256,581.395 218.632,580.587 219.384,579.931C220.136,579.275 220.992,578.947 221.952,578.947C222.88,578.947 223.712,579.275 224.448,579.931C225.184,580.587 225.552,581.395 225.552,582.355C225.552,583.315 225.184,584.115 224.448,584.755C223.712,585.395 222.88,585.715 221.952,585.715C220.992,585.715 220.136,585.395 219.384,584.755C218.632,584.115 218.256,583.315 218.256,582.355Z" style="fill:rgb(246,246,246);fill-rule:nonzero;"/>
            <path d="M238.464,580.579L238.464,589.699L243.552,589.699L243.552,594.931L238.464,594.931L238.464,610.771L231.744,610.771L231.744,594.931L228.48,594.931L228.48,589.699L231.744,589.699L231.744,580.579L238.464,580.579Z" style="fill:rgb(246,246,246);fill-rule:nonzero;"/>
            <path d="M267.552,589.795L267.552,610.771L261.456,610.771L260.976,607.411C260.24,608.755 259.208,609.819 257.88,610.603C256.552,611.387 254.992,611.779 253.2,611.779C251.28,611.779 249.68,611.187 248.4,610.003C247.12,608.819 246.464,607.315 246.432,605.491L246.432,589.795L253.152,589.795L253.152,602.995C253.248,605.043 254.192,606.067 255.984,606.067C257.456,606.067 258.632,605.347 259.512,603.907C260.392,602.467 260.832,600.611 260.832,598.339L260.832,589.795L267.552,589.795Z" style="fill:rgb(246,246,246);fill-rule:nonzero;"/>
            <path d="M278.784,594.595C279.36,593.475 280.152,592.467 281.16,591.571C282.168,590.675 283.2,589.979 284.256,589.483C285.312,588.987 286.144,588.739 286.752,588.739L286.416,595.459C286.224,595.427 285.952,595.411 285.6,595.411C284.256,595.411 283.072,595.763 282.048,596.467C281.024,597.171 280.24,598.075 279.696,599.179C279.152,600.283 278.88,601.411 278.88,602.563L278.88,610.771L272.208,610.771L272.208,589.795L278.256,589.795L278.784,594.595Z" style="fill:rgb(246,246,246);fill-rule:nonzero;"/>
            <path d="M299.136,605.635C300.48,605.635 301.872,605.171 303.312,604.243L306.288,609.235C305.136,609.875 303.92,610.387 302.64,610.771C301.36,611.155 300.144,611.347 298.992,611.347C296.496,611.347 294.344,610.875 292.536,609.931C290.728,608.987 289.36,607.659 288.432,605.947C287.504,604.235 287.04,602.275 287.04,600.067C287.04,598.019 287.576,596.131 288.648,594.403C289.72,592.675 291.184,591.307 293.04,590.299C294.896,589.291 296.928,588.787 299.136,588.787C302.144,588.787 304.616,589.667 306.552,591.427C308.488,593.187 309.744,595.699 310.32,598.963L294.96,603.859C295.984,605.043 297.376,605.635 299.136,605.635ZM298.608,594.019C297.104,594.019 295.904,594.531 295.008,595.555C294.112,596.579 293.664,597.955 293.664,599.683L293.664,600.115L302.88,596.995C302.208,595.011 300.784,594.019 298.608,594.019Z" style="fill:rgb(246,246,246);fill-rule:nonzero;"/>
            <path d="M349.104,610.771L346.512,607.315C345.456,608.563 344.128,609.547 342.528,610.267C340.928,610.987 339.04,611.347 336.864,611.347C334.656,611.347 332.648,610.883 330.84,609.955C329.032,609.027 327.608,607.739 326.568,606.091C325.528,604.443 325.008,602.579 325.008,600.499C325.008,598.131 325.832,595.995 327.48,594.091C329.128,592.187 331.184,590.819 333.648,589.987L333.552,589.843C332.816,588.883 332.136,587.731 331.512,586.387C330.888,585.043 330.576,583.715 330.576,582.403C330.576,581.059 330.92,579.755 331.608,578.491C332.296,577.227 333.336,576.187 334.728,575.371C336.12,574.555 337.792,574.147 339.744,574.147C341.888,574.147 343.832,574.587 345.576,575.467C347.32,576.347 348.752,577.491 349.872,578.899L346.368,583.555C345.28,582.403 344.296,581.523 343.416,580.915C342.536,580.307 341.68,580.003 340.848,580.003C339.824,580.003 339.056,580.299 338.544,580.891C338.032,581.483 337.776,582.211 337.776,583.075C337.776,583.971 338.32,585.235 339.408,586.867L345.792,595.459L348.192,589.267L354.528,589.267L349.872,600.979L357.168,610.771L349.104,610.771ZM337.824,605.107C340.128,605.107 341.824,604.227 342.912,602.467L337.152,594.739C335.744,594.867 334.568,595.459 333.624,596.515C332.68,597.571 332.208,598.771 332.208,600.115C332.208,601.587 332.744,602.787 333.816,603.715C334.888,604.643 336.224,605.107 337.824,605.107Z" style="fill:rgb(246,246,246);fill-rule:nonzero;"/>
            <path d="M403.392,612.307L394.992,591.379L385.2,612.403L370.992,575.683L379.152,575.683L386.112,596.131L391.488,582.643L388.704,575.683L395.616,575.683L403.536,595.315L409.536,575.683L417.024,575.683L403.392,612.307Z" style="fill:rgb(246,246,246);fill-rule:nonzero;"/>
            <path d="M414.288,600.019C414.288,597.875 414.792,595.955 415.8,594.259C416.808,592.563 418.232,591.227 420.072,590.251C421.912,589.275 424,588.787 426.336,588.787C428.672,588.787 430.728,589.275 432.504,590.251C434.28,591.227 435.648,592.563 436.608,594.259C437.568,595.955 438.048,597.875 438.048,600.019C438.048,602.163 437.568,604.099 436.608,605.827C435.648,607.555 434.28,608.907 432.504,609.883C430.728,610.859 428.64,611.347 426.24,611.347C423.904,611.347 421.832,610.891 420.024,609.979C418.216,609.067 416.808,607.763 415.8,606.067C414.792,604.371 414.288,602.355 414.288,600.019ZM421.056,600.067C421.056,601.731 421.536,603.115 422.496,604.219C423.456,605.323 424.672,605.875 426.144,605.875C427.68,605.875 428.92,605.331 429.864,604.243C430.808,603.155 431.28,601.763 431.28,600.067C431.28,598.371 430.808,596.979 429.864,595.891C428.92,594.803 427.68,594.259 426.144,594.259C424.672,594.259 423.456,594.811 422.496,595.915C421.536,597.019 421.056,598.403 421.056,600.067Z" style="fill:rgb(246,246,246);fill-rule:nonzero;"/>
            <path d="M439.44,600.019C439.44,597.875 439.944,595.955 440.952,594.259C441.96,592.563 443.384,591.227 445.224,590.251C447.064,589.275 449.152,588.787 451.488,588.787C453.824,588.787 455.88,589.275 457.656,590.251C459.432,591.227 460.8,592.563 461.76,594.259C462.72,595.955 463.2,597.875 463.2,600.019C463.2,602.163 462.72,604.099 461.76,605.827C460.8,607.555 459.432,608.907 457.656,609.883C455.88,610.859 453.792,611.347 451.392,611.347C449.056,611.347 446.984,610.891 445.176,609.979C443.368,609.067 441.96,607.763 440.952,606.067C439.944,604.371 439.44,602.355 439.44,600.019ZM446.208,600.067C446.208,601.731 446.688,603.115 447.648,604.219C448.608,605.323 449.824,605.875 451.296,605.875C452.832,605.875 454.072,605.331 455.016,604.243C455.96,603.155 456.432,601.763 456.432,600.067C456.432,598.371 455.96,596.979 455.016,595.891C454.072,594.803 452.832,594.259 451.296,594.259C449.824,594.259 448.608,594.811 447.648,595.915C446.688,597.019 446.208,598.403 446.208,600.067Z" style="fill:rgb(246,246,246);fill-rule:nonzero;"/>
            <path d="M489.264,572.899L489.264,610.771L482.544,610.771L482.544,608.563C480.112,610.419 477.52,611.347 474.768,611.347C472.816,611.347 471.072,610.883 469.536,609.955C468,609.027 466.792,607.699 465.912,605.971C465.032,604.243 464.592,602.211 464.592,599.875C464.592,597.571 465.064,595.579 466.008,593.899C466.952,592.219 468.256,590.939 469.92,590.059C471.584,589.179 473.488,588.739 475.632,588.739C477.008,588.739 478.304,588.955 479.52,589.387C480.736,589.819 481.76,590.451 482.592,591.283L482.592,572.899L489.264,572.899ZM476.976,605.683C478.32,605.683 479.44,605.419 480.336,604.891C481.232,604.363 481.968,603.571 482.544,602.515L482.544,597.379C482.16,596.355 481.472,595.539 480.48,594.931C479.488,594.323 478.32,594.019 476.976,594.019C475.472,594.019 474.168,594.563 473.064,595.651C471.96,596.739 471.408,598.115 471.408,599.779C471.408,600.867 471.664,601.867 472.176,602.779C472.688,603.691 473.368,604.403 474.216,604.915C475.064,605.427 475.984,605.683 476.976,605.683Z" style="fill:rgb(246,246,246);fill-rule:nonzero;"/>
            <path d="M522.816,589.795L513.36,612.019L506.64,598.099L500.496,612.019L490.944,589.795L497.472,589.795L501.36,598.675L504.288,592.195L503.184,589.795L508.896,589.795L512.832,599.059L516.288,589.795L522.816,589.795Z" style="fill:rgb(246,246,246);fill-rule:nonzero;"/>
            <path d="M522.864,600.019C522.864,597.875 523.368,595.955 524.376,594.259C525.384,592.563 526.808,591.227 528.648,590.251C530.488,589.275 532.576,588.787 534.912,588.787C537.248,588.787 539.304,589.275 541.08,590.251C542.856,591.227 544.224,592.563 545.184,594.259C546.144,595.955 546.624,597.875 546.624,600.019C546.624,602.163 546.144,604.099 545.184,605.827C544.224,607.555 542.856,608.907 541.08,609.883C539.304,610.859 537.216,611.347 534.816,611.347C532.48,611.347 530.408,610.891 528.6,609.979C526.792,609.067 525.384,607.763 524.376,606.067C523.368,604.371 522.864,602.355 522.864,600.019ZM529.632,600.067C529.632,601.731 530.112,603.115 531.072,604.219C532.032,605.323 533.248,605.875 534.72,605.875C536.256,605.875 537.496,605.331 538.44,604.243C539.384,603.155 539.856,601.763 539.856,600.067C539.856,598.371 539.384,596.979 538.44,595.891C537.496,594.803 536.256,594.259 534.72,594.259C533.248,594.259 532.032,594.811 531.072,595.915C530.112,597.019 529.632,598.403 529.632,600.067Z" style="fill:rgb(246,246,246);fill-rule:nonzero;"/>
            <path d="M556.224,594.595C556.8,593.475 557.592,592.467 558.6,591.571C559.608,590.675 560.64,589.979 561.696,589.483C562.752,588.987 563.584,588.739 564.192,588.739L563.856,595.459C563.664,595.427 563.392,595.411 563.04,595.411C561.696,595.411 560.512,595.763 559.488,596.467C558.464,597.171 557.68,598.075 557.136,599.179C556.592,600.283 556.32,601.411 556.32,602.563L556.32,610.771L549.648,610.771L549.648,589.795L555.696,589.795L556.224,594.595Z" style="fill:rgb(246,246,246);fill-rule:nonzero;"/>
            <path d="M575.664,602.035L573.792,603.427L573.792,610.771L567.072,610.771L567.072,572.899L573.792,572.899L573.792,596.611L583.776,589.267L587.856,592.867L580.416,598.483L588.624,610.771L580.8,610.771L575.664,602.035Z" style="fill:rgb(246,246,246);fill-rule:nonzero;"/>
            <path d="M597.744,589.795L597.744,610.771L591.024,610.771L591.024,589.795L597.744,589.795ZM590.88,582.355C590.88,581.395 591.256,580.587 592.008,579.931C592.76,579.275 593.616,578.947 594.576,578.947C595.504,578.947 596.336,579.275 597.072,579.931C597.808,580.587 598.176,581.395 598.176,582.355C598.176,583.315 597.808,584.115 597.072,584.755C596.336,585.395 595.504,585.715 594.576,585.715C593.616,585.715 592.76,585.395 592.008,584.755C591.256,584.115 590.88,583.315 590.88,582.355Z" style="fill:rgb(246,246,246);fill-rule:nonzero;"/>
            <path d="M616.992,588.787C618.976,588.787 620.632,589.379 621.96,590.563C623.288,591.747 623.968,593.251 624,595.075L624,610.771L617.28,610.771L617.28,597.571C617.184,595.523 616.16,594.499 614.208,594.499C612.672,594.499 611.44,595.219 610.512,596.659C609.584,598.099 609.12,599.955 609.12,602.227L609.12,610.771L602.4,610.771L602.4,589.795L608.496,589.795L608.976,593.155C609.744,591.779 610.808,590.707 612.168,589.939C613.528,589.171 615.136,588.787 616.992,588.787Z" style="fill:rgb(246,246,246);fill-rule:nonzero;"/>
            <path d="M652.128,589.795L652.128,610.771C652.128,612.755 651.56,614.555 650.424,616.171C649.288,617.787 647.752,619.051 645.816,619.963C643.88,620.875 641.776,621.331 639.504,621.331C637.776,621.331 636.264,621.123 634.968,620.707C633.672,620.291 632.632,619.827 631.848,619.315C631.064,618.803 630.128,618.099 629.04,617.203L632.976,612.595C633.936,613.491 634.888,614.195 635.832,614.707C636.776,615.219 637.968,615.475 639.408,615.475C641.104,615.475 642.528,615.051 643.68,614.203C644.832,613.355 645.408,612.179 645.408,610.675L645.408,607.699C644.768,608.787 643.784,609.667 642.456,610.339C641.128,611.011 639.504,611.347 637.584,611.347C635.696,611.347 633.944,610.859 632.328,609.883C630.712,608.907 629.424,607.563 628.464,605.851C627.504,604.139 627.024,602.243 627.024,600.163C627.024,598.051 627.528,596.115 628.536,594.355C629.544,592.595 630.872,591.219 632.52,590.227C634.168,589.235 635.904,588.739 637.728,588.739C639.456,588.739 640.992,588.987 642.336,589.483C643.68,589.979 644.704,590.627 645.408,591.427L645.936,589.795L652.128,589.795ZM639.6,605.875C642.288,605.875 644.224,604.819 645.408,602.707L645.408,597.571C644.96,596.547 644.216,595.731 643.176,595.123C642.136,594.515 640.944,594.211 639.6,594.211C637.968,594.211 636.592,594.755 635.472,595.843C634.352,596.931 633.792,598.307 633.792,599.971C633.792,601.635 634.352,603.035 635.472,604.171C636.592,605.307 637.968,605.875 639.6,605.875Z" style="fill:rgb(246,246,246);fill-rule:nonzero;"/>
        </g>
    </g>
</svg>
